<svg width="36" height="37" viewBox="0 0 36 37" fill="none" xmlns="http://www.w3.org/2000/svg">
<path d="M2.92433 13.6606C4.13098 15.5273 5.46124 17.311 6.90621 19H7.98683C7.85065 18.2195 7.65699 17.4501 7.40746 16.6981C6.45336 13.9085 4.78991 11.4152 2.58058 9.4631L3.41933 8.53685C5.78843 10.6323 7.57126 13.3084 8.59246 16.3018C8.75746 16.7937 8.89308 17.2981 9.01371 17.8075C9.06996 17.705 9.12808 17.6037 9.17746 17.495C10.5843 14.37 9.90058 9.39372 6.91058 7.66747C6.19277 7.29698 5.40728 7.07588 4.6016 7.01755C3.79592 6.95922 2.98678 7.06486 2.22308 7.3281C1.87465 7.41646 1.54808 7.57544 1.2636 7.79519C0.979134 8.01494 0.742828 8.29077 0.569333 8.6056C0.237458 9.44372 1.14871 10.915 2.92433 13.6606Z" fill="#F65024"/>
<path d="M17.3367 12.9244C17.2894 12.5472 17.1951 12.1775 17.0561 11.8237C16.0817 9.35124 13.2379 7.97312 11.5342 8.48062C10.9748 8.66927 10.4921 9.03501 10.1592 9.52249C11.3103 12.0301 11.4408 14.8873 10.5229 17.4894C10.5586 17.4456 10.6011 17.4069 10.6361 17.3644C11.9638 15.6474 12.7843 13.593 13.0048 11.4337L14.2473 11.57C14.0049 13.9635 13.093 16.2403 11.6161 18.1394C11.3779 18.4406 11.1161 18.7237 10.8486 19.0019H13.7311L13.7829 18.9775C13.4551 17.7038 13.6451 16.3521 14.3113 15.2181C14.9776 14.084 16.0658 13.26 17.3379 12.9262L17.3367 12.9244Z" fill="#F65024"/>
<path d="M28.7502 19H35.0096C34.6115 18.4233 34.0539 17.975 33.4052 17.71C32.9816 17.5672 32.5394 17.4871 32.0927 17.4725C31.5189 17.43 30.8683 17.3813 30.5671 16.7794C30.2546 16.1481 30.6814 15.6163 31.0239 15.1881C31.3721 14.8099 31.6266 14.3552 31.7671 13.8606C32.0758 12.5138 32.0796 10.2531 30.8196 9.54438C30.5267 9.39494 30.2068 9.30597 29.8789 9.28278C29.551 9.25958 29.2217 9.30264 28.9108 9.40938C27.9728 9.69104 27.1763 10.3174 26.6814 11.1625C26.1946 12.1038 26.4789 13.1475 26.7539 14.1556C27.0289 15.1638 27.3164 16.2238 26.5589 16.9513C25.7896 17.6919 24.6658 17.3888 23.5777 17.0919C23.6697 17.7292 23.6301 18.3786 23.4614 19H27.4796C27.6358 18.115 27.8121 17.2288 28.0164 16.3569C28.3664 14.8669 28.7927 13.3756 29.2833 11.925L30.4671 12.325C29.9896 13.7381 29.5746 15.1913 29.2339 16.6431C29.0514 17.4206 28.8933 18.2106 28.7502 19Z" fill="#F65024"/>
<path d="M22.1588 19C22.2734 18.6767 22.3418 18.3388 22.3619 17.9963L21.3225 18.3425L20.9275 17.155L22.2288 16.7213C22.0334 16.0417 21.6502 15.4311 21.1233 14.9597C20.5963 14.4882 19.947 14.1751 19.25 14.0563V15.25H18V14.0563C17.4021 14.1585 16.8378 14.4039 16.3554 14.7717C15.873 15.1395 15.4869 15.6186 15.23 16.1681L16.3225 16.5325L15.9275 17.72L14.8944 17.375C14.8817 17.4996 14.8752 17.6248 14.875 17.75C14.8742 18.1761 14.9473 18.599 15.0913 19H22.1588ZM18 16.5H19.25V17.75H18V16.5Z" fill="#F65024"/>
<path d="M5.28311 19C4.58395 18.1483 3.91082 17.27 3.26374 16.365C2.69251 16.5551 2.13963 16.7965 1.61186 17.0862C1.18326 17.2726 0.834519 17.6047 0.627487 18.0237C0.500004 18.3326 0.466099 18.6721 0.529987 19H5.28311Z" fill="#F65024"/>
<path d="M0.51123 20.25C0.677904 24.6127 2.52696 28.7415 5.67078 31.7709C8.81461 34.8003 13.0091 36.4951 17.375 36.5H18.625C22.9909 36.4951 27.1854 34.8003 30.3292 31.7709C33.473 28.7415 35.3221 24.6127 35.4887 20.25H0.51123ZM10.8531 33.3125C7.89655 31.8856 5.41725 29.6318 3.71561 26.8244L4.78436 26.1756C6.36104 28.7767 8.65789 30.8649 11.3969 32.1875L10.8531 33.3125ZM13.625 34H12.375V32.75H13.625V34Z" fill="#F65024"/>
<path d="M27.375 4V2.75H24.875C23.5489 2.75 22.2771 3.27678 21.3395 4.21447C20.4018 5.15215 19.875 6.42392 19.875 7.75V9H22.375C23.7011 9 24.9729 8.47322 25.9105 7.53553C26.8482 6.59785 27.375 5.32608 27.375 4Z" fill="#F65024"/>
<path d="M15.5 5.25C16.1904 5.25 16.75 4.69036 16.75 4C16.75 3.30964 16.1904 2.75 15.5 2.75C14.8096 2.75 14.25 3.30964 14.25 4C14.25 4.69036 14.8096 5.25 15.5 5.25Z" fill="#F65024"/>
<path d="M7.375 3.375C8.06536 3.375 8.625 2.81536 8.625 2.125C8.625 1.43464 8.06536 0.875 7.375 0.875C6.68464 0.875 6.125 1.43464 6.125 2.125C6.125 2.81536 6.68464 3.375 7.375 3.375Z" fill="#F65024"/>
</svg>
