<svg width="40" height="34" viewBox="0 0 40 34" fill="none" xmlns="http://www.w3.org/2000/svg">
<path d="M22.5671 24.73C21.8552 25.1666 20.9434 25.4072 19.9998 25.4072C19.0562 25.4072 18.1444 25.1667 17.4325 24.73L5.80936 17.6015C5.80936 17.6015 4.76025 16.9584 4.76025 18.4152C4.76025 20.0694 4.76025 25.0322 4.76025 25.0322C4.76025 25.0984 4.76025 25.4305 4.76025 25.5335C4.76025 29.2833 11.5831 33.3259 19.9995 33.3259C28.4159 33.3259 35.2387 29.2834 35.2387 25.5335C35.2387 25.4305 35.2387 25.0984 35.2387 25.0322C35.2387 25.0322 35.2387 19.7684 35.2387 18.0138C35.2387 16.8445 34.4929 17.4159 34.4929 17.4159L22.5671 24.73Z" fill="#F65024"/>
<path d="M39.3302 11.9312C40.2233 11.3835 40.2233 10.4871 39.3302 9.93934L21.6238 1.08504C20.7307 0.537328 19.2692 0.537328 18.3761 1.08504L0.669825 9.93934C-0.223275 10.487 -0.223275 11.3834 0.669825 11.9312L18.3761 22.7906C19.2692 23.3383 20.7307 23.3383 21.6238 22.7906" fill="#F65024"/>
<path d="M38.598 28.0274C38.598 25.0291 38.598 16.034 38.598 16.034C38.598 16.034 38.6063 15.4659 38.2692 15.6535C37.9988 15.804 37.336 16.1735 37.1025 16.3766C36.8329 16.6109 36.8937 17.1369 36.8937 17.1369C36.8937 17.1369 36.8937 25.3048 36.8937 28.0274C36.8937 28.182 36.7608 28.2558 36.6975 28.2931C36.0854 28.6529 35.6738 29.3171 35.6738 30.0786C35.6738 31.2229 36.6014 32.1506 37.7459 32.1506C38.8902 32.1506 39.8178 31.2229 39.8178 30.0786C39.8178 29.3142 39.4032 28.6479 38.7872 28.289C38.726 28.2533 38.598 28.1819 38.598 28.0274Z" fill="#F65024"/>
</svg>
