<svg width="40" height="40" viewBox="0 0 40 40" fill="none" xmlns="http://www.w3.org/2000/svg">
<path d="M7.04454 24.4541L15.8004 15.6982L17.8919 17.7921C18.878 18.7832 20.1905 19.3292 21.5873 19.3292C22.9841 19.3292 24.2966 18.7832 25.2831 17.7917C27.3119 15.7527 27.3119 12.4352 25.2831 10.3962L22.0038 7.10824L23.6328 5.67566C27.7305 2.0848 33.9633 2.49566 37.5541 6.59331C41.145 10.691 40.7341 16.9238 36.6365 20.5146L34.296 22.6778L31.6977 20.0795C30.186 18.5678 27.7263 18.5678 26.2146 20.0795C25.4937 20.8003 25.0925 21.7553 25.0802 22.7728C24.104 22.7853 23.1317 23.1623 22.3886 23.9054C21.6451 24.649 21.2681 25.622 21.256 26.5986C20.2793 26.6107 19.3063 26.9877 18.5627 27.7313H18.5627C17.051 29.243 17.051 31.7028 18.5627 33.2145L20.6437 35.2954L18.8838 36.922C17.6831 37.9742 15.8568 37.8538 14.8046 36.6531C13.7524 35.4525 13.8728 33.6261 15.0735 32.574C13.8729 33.6262 12.0466 33.5058 10.9945 32.3051C9.94227 31.1045 10.0627 29.2782 11.2634 28.226L11.2632 28.2259C10.0626 29.2781 8.23626 29.1577 7.18407 27.957C6.28243 26.9281 6.33461 25.6291 7.04454 24.4541Z" fill="#F65024"/>
<path d="M2.88942 5.25076C6.74208 1.39818 12.9883 1.39818 16.841 5.25076L23.6218 12.0495C24.4315 12.8634 24.6803 14.1162 24.2532 15.1801C23.7885 16.3376 22.5917 17.0787 21.348 16.9754C20.6622 16.9184 20.0161 16.6103 19.5344 16.1201L15.8015 12.3829L5.93567 22.2485L2.8895 19.2022C-0.963154 15.3497 -0.963154 9.10334 2.88942 5.25076Z" fill="#F65024"/>
<path d="M31.2145 27.248L27.8717 23.9053C27.5821 23.6157 27.4226 23.2306 27.4226 22.821C27.4226 22.4114 27.5821 22.0264 27.8717 21.7367C28.1707 21.4378 28.5635 21.2883 28.956 21.2883C29.3488 21.2883 29.7414 21.4378 30.0403 21.7368L33.383 25.0794C33.9785 25.675 33.9804 26.6424 33.3894 27.2409C33.3796 27.2505 33.3696 27.2597 33.3597 27.2691C33.0728 27.5447 32.6978 27.6972 32.2987 27.6972C31.8892 27.6972 31.5041 27.5376 31.2145 27.248Z" fill="#F65024"/>
<path d="M27.3885 31.0741L24.0457 27.7313C23.7561 27.4416 23.5967 27.0566 23.5967 26.647C23.5967 26.2374 23.7562 25.8524 24.0457 25.5627C24.3354 25.2731 24.7204 25.1136 25.13 25.1136C25.5396 25.1136 25.9247 25.2731 26.2143 25.5627L29.5571 28.9055C29.8467 29.1951 30.0062 29.5801 30.0062 29.9898C30.0062 30.3971 29.8482 30.7799 29.5617 31.0691C29.5554 31.0753 29.5488 31.0812 29.5425 31.0873C28.9434 31.6711 27.9817 31.6672 27.3885 31.0741Z" fill="#F65024"/>
<path d="M23.5626 34.8999L20.2199 31.5573C19.6221 30.9594 19.622 29.9865 20.2199 29.3887V29.3886C20.5096 29.099 20.8946 28.9395 21.3042 28.9395C21.7138 28.9395 22.0989 29.099 22.3885 29.3886L25.7312 32.7313C26.0208 33.021 26.1803 33.406 26.1803 33.8156C26.1803 34.2241 26.0216 34.608 25.7335 34.8974C25.7303 34.9005 25.7271 34.9034 25.724 34.9064C25.1255 35.4973 24.1582 35.4955 23.5626 34.8999Z" fill="#F65024"/>
</svg>
