<svg width="40" height="40" viewBox="0 0 40 40" fill="none" xmlns="http://www.w3.org/2000/svg">
<path d="M33.9789 14.9559L33.9186 14.8743L33.9066 14.8503L28.4293 6.71924L22.9518 14.8504L22.9404 14.8732L22.8796 14.956C22.0007 16.1463 21.5361 17.5604 21.5361 19.0457C21.5361 22.8466 24.6284 25.9387 28.4292 25.9387C32.23 25.9387 35.3223 22.8465 35.3223 19.0457C35.3224 17.5604 34.8578 16.1461 33.9789 14.9559Z" fill="#F65024"/>
<path d="M28.4292 28.2873C23.3332 28.2873 19.1875 24.1415 19.1875 19.0457C19.1875 17.0647 19.8046 15.1771 20.9724 13.5851L24.5731 8.23986L19.0222 0L7.45696 17.1682C5.6386 19.6428 4.67773 22.5767 4.67773 25.6554C4.67773 33.5651 11.1127 40 19.0223 40C26.5168 40 32.6863 34.2226 33.3133 26.8876C31.8953 27.7741 30.2212 28.2873 28.4292 28.2873Z" fill="#F65024"/>
</svg>
