<svg width="70" height="70" viewBox="0 0 70 70" fill="none" xmlns="http://www.w3.org/2000/svg">
<g clip-path="url(#clip0_69_64)">
<path d="M22.9688 48.1249C22.9688 48.415 23.084 48.6932 23.2891 48.8983C23.4942 49.1034 23.7724 49.2186 24.0625 49.2186H45.9375C46.2276 49.2186 46.5058 49.1034 46.7109 48.8983C46.916 48.6932 47.0312 48.415 47.0312 48.1249C47.0312 47.8348 46.916 47.5566 46.7109 47.3515C46.5058 47.1464 46.2276 47.0311 45.9375 47.0311H24.0625C23.7724 47.0311 23.4942 47.1464 23.2891 47.3515C23.084 47.5566 22.9688 47.8348 22.9688 48.1249Z" fill="#CF9800"/>
<path d="M30.4092 29.3148C29.7244 30.001 29.3398 30.9309 29.3398 31.9004C29.3398 32.8699 29.7244 33.7999 30.4092 34.4861C30.8833 34.9638 31.4904 35.2874 32.1512 35.4147C32.8121 35.5419 33.4959 35.467 34.1135 35.1996L36.3607 34.2362C36.577 34.1426 36.8164 34.1163 37.0478 34.1608C37.2792 34.2053 37.4918 34.3186 37.6578 34.4858C37.7943 34.6222 37.9025 34.7842 37.9764 34.9625C38.0502 35.1408 38.0882 35.3319 38.0882 35.5249C38.0882 35.7178 38.0502 35.9089 37.9764 36.0872C37.9025 36.2655 37.7943 36.4275 37.6578 36.5639C37.5214 36.7004 37.3594 36.8086 37.1811 36.8825C37.0028 36.9563 36.8117 36.9943 36.6188 36.9943C36.4258 36.9943 36.2347 36.9563 36.0564 36.8825C35.8781 36.8086 35.7161 36.7004 35.5797 36.5639C35.3737 36.3631 35.0969 36.2515 34.8092 36.2533C34.5216 36.2551 34.2462 36.3702 34.0428 36.5737C33.8393 36.7771 33.7243 37.0525 33.7224 37.3401C33.7206 37.6278 33.8322 37.9046 34.033 38.1106C34.3725 38.4501 34.7756 38.7194 35.2192 38.9032C35.6628 39.0869 36.1383 39.1815 36.6184 39.1815C37.0986 39.1815 37.574 39.0869 38.0176 38.9032C38.4612 38.7194 38.8643 38.4501 39.2038 38.1106C39.5434 37.7711 39.8127 37.368 39.9964 36.9244C40.1802 36.4808 40.2747 36.0053 40.2747 35.5252C40.2747 35.045 40.1802 34.5696 39.9964 34.126C39.8127 33.6824 39.5434 33.2793 39.2038 32.9398C38.7296 32.4623 38.1225 32.1388 37.4617 32.0116C36.801 31.8843 36.1171 31.9591 35.4995 32.2263L33.2522 33.1897C33.0361 33.2836 32.7966 33.31 32.5652 33.2654C32.3338 33.2208 32.1213 33.1073 31.9556 32.9398C31.8183 32.8036 31.7092 32.6416 31.6347 32.4631C31.5602 32.2846 31.5216 32.0932 31.5212 31.8998C31.5208 31.7064 31.5586 31.5148 31.6324 31.3361C31.7062 31.1573 31.8146 30.9949 31.9514 30.8581C32.0881 30.7213 32.2505 30.6129 32.4292 30.539C32.608 30.4652 32.7995 30.4273 32.9929 30.4276C33.1863 30.428 33.3778 30.4665 33.5562 30.5409C33.7347 30.6154 33.8968 30.7244 34.033 30.8617C34.1344 30.9639 34.255 31.0452 34.3879 31.1007C34.5208 31.1563 34.6634 31.185 34.8074 31.1853C34.9515 31.1856 35.0941 31.1575 35.2273 31.1025C35.3604 31.0475 35.4814 30.9668 35.5832 30.8649C35.685 30.7631 35.7658 30.6421 35.8207 30.509C35.8757 30.3758 35.9038 30.2332 35.9035 30.0891C35.9032 29.9451 35.8744 29.8025 35.8188 29.6696C35.7633 29.5368 35.682 29.4162 35.5797 29.3148C34.8935 28.6301 33.9638 28.2455 32.9945 28.2455C32.0251 28.2455 31.0954 28.6301 30.4092 29.3148Z" fill="#CF9800"/>
<path d="M52.3688 25.241L58.2592 21.8749H65.625C65.9151 21.8749 66.1933 21.7597 66.3984 21.5546C66.6035 21.3494 66.7188 21.0712 66.7188 20.7812V5.46866C66.7188 5.17858 66.6035 4.90038 66.3984 4.69526C66.1933 4.49014 65.9151 4.37491 65.625 4.37491H58.2592L52.3688 1.00878C51.2114 0.34823 49.9019 0.00052472 48.5693 -9.34973e-05H34.2491C33.2434 -0.00285027 32.2471 0.193902 31.318 0.578774C30.3888 0.963647 29.5452 1.52899 28.836 2.24209L20.9137 10.1641C20.1285 10.9494 19.6873 12.0144 19.6873 13.1249C19.6873 14.2355 20.1285 15.3005 20.9138 16.0857C21.699 16.871 22.7641 17.3121 23.8746 17.3121C24.9851 17.3121 26.0501 16.8709 26.8354 16.0857L28.3944 14.5267C28.5516 14.8026 28.7434 15.0573 28.9651 15.2846C29.6835 16.0014 30.6569 16.404 31.6717 16.404C32.6865 16.404 33.6599 16.0014 34.3783 15.2846L34.4092 15.2539C34.4185 15.2633 34.4246 15.2758 34.4339 15.2846C35.1523 16.0014 36.1256 16.404 37.1405 16.404C38.1553 16.404 39.1287 16.0014 39.8471 15.2846L44.0203 11.112L44.9538 12.279C45.1225 12.4889 45.2077 12.7539 45.1929 13.0228C45.1781 13.2918 45.0644 13.5457 44.8736 13.7359L40.0158 18.5937H33.3594C32.3445 18.5949 31.3715 18.9986 30.6538 19.7162C29.9362 20.4339 29.5325 21.4069 29.5312 22.4218C29.5356 23.0443 29.6937 23.6561 29.9915 24.2027C28.9855 24.7128 28.0658 25.3774 27.2658 26.1725C25.5667 27.8773 24.477 30.0947 24.1652 32.4813C23.8535 34.868 24.337 37.2908 25.5411 39.3749H13.125C12.9322 39.3749 12.7428 39.4259 12.576 39.5227C12.4093 39.6195 12.2711 39.7586 12.1754 39.926L3.42541 55.2385C3.41152 55.2629 3.4055 55.2908 3.39358 55.3162C3.37969 55.3455 3.36842 55.3745 3.35705 55.4052C3.30974 55.5251 3.28408 55.6524 3.28125 55.7812V68.9062C3.28125 69.1962 3.39648 69.4744 3.6016 69.6796C3.80672 69.8847 4.08492 69.9999 4.375 69.9999H65.625C65.9151 69.9999 66.1933 69.8847 66.3984 69.6796C66.6035 69.4744 66.7188 69.1962 66.7188 68.9062V55.7812C66.716 55.6525 66.6903 55.5253 66.643 55.4056C66.632 55.3746 66.6203 55.3455 66.6063 55.3159C66.5943 55.2906 66.5885 55.2629 66.5746 55.2385L57.8246 39.926C57.7289 39.7586 57.5907 39.6195 57.424 39.5227C57.2572 39.4259 57.0678 39.3749 56.875 39.3749H44.4589C45.6532 37.3064 46.138 34.9039 45.8392 32.5341C45.5405 30.1643 44.4746 27.9573 42.8042 26.2499H48.5693C49.9019 26.2493 51.2114 25.9016 52.3688 25.241ZM30.5118 13.738C30.273 13.499 30.1164 13.1903 30.0647 12.8564L34.1712 8.74991H37.8198L32.8323 13.7374C32.5245 14.0449 32.1072 14.2177 31.6722 14.2178C31.2371 14.2179 30.8197 14.0453 30.5118 13.738ZM38.3005 13.738C37.9927 14.0452 37.5755 14.2178 37.1405 14.2178C36.7056 14.2178 36.2884 14.0452 35.9805 13.738C35.9711 13.7285 35.9682 13.7136 35.9587 13.7039L40.913 8.74991H42.1313L42.6461 9.39347L38.3005 13.738ZM33.3594 20.7812H40.4688C40.6124 20.7812 40.7546 20.7529 40.8873 20.6979C41.02 20.6429 41.1405 20.5623 41.242 20.4607L46.4203 15.283C46.9921 14.7124 47.3331 13.9508 47.3778 13.1443C47.4226 12.3378 47.1679 11.5431 46.6628 10.9128L43.5107 6.97311C43.4081 6.84503 43.2781 6.74163 43.1302 6.67055C42.9823 6.59946 42.8203 6.5625 42.6562 6.56241H33.7182C33.5746 6.5624 33.4324 6.59069 33.2997 6.64568C33.167 6.70067 33.0465 6.78127 32.945 6.88288L25.2887 14.5391C24.9136 14.9142 24.4049 15.1249 23.8745 15.1249C23.3441 15.1249 22.8354 14.9141 22.4603 14.5391C22.0853 14.164 21.8746 13.6553 21.8746 13.1249C21.8746 12.5944 22.0853 12.0857 22.4604 11.7107L30.3825 3.78909C31.4103 2.76701 32.7997 2.19148 34.2491 2.18741H48.5693C49.5212 2.18809 50.4565 2.43637 51.2834 2.90786L57.4261 6.4188C57.5915 6.51301 57.7785 6.56251 57.9688 6.56241H64.5312V19.6874H57.9688C57.7784 19.6875 57.5914 19.7372 57.4261 19.8316L51.2834 23.3425C50.4565 23.8138 49.5211 24.0619 48.5693 24.0624H33.3594C32.9243 24.0624 32.507 23.8896 32.1993 23.5819C31.8916 23.2742 31.7188 22.8569 31.7188 22.4218C31.7188 21.9867 31.8916 21.5694 32.1993 21.2617C32.507 20.954 32.9243 20.7812 33.3594 20.7812ZM5.46875 67.8124V56.8749H64.5312V67.8124H5.46875ZM56.2406 41.5624L63.7404 54.6874H6.25975L13.7594 41.5624H27.1958C27.2204 41.5875 27.2408 41.6149 27.2658 41.6398C28.2814 42.6556 29.4872 43.4613 30.8142 44.011C32.1413 44.5607 33.5636 44.8436 35 44.8436C36.4364 44.8436 37.8587 44.5607 39.1858 44.011C40.5128 43.4613 41.7186 42.6556 42.7342 41.6398C42.7592 41.6149 42.7796 41.5875 42.8042 41.5624H56.2406ZM41.1876 27.7191C42.4112 28.9428 43.2445 30.5019 43.5821 32.1992C43.9198 33.8965 43.7465 35.6558 43.0843 37.2546C42.422 38.8534 41.3006 40.22 39.8617 41.1814C38.4229 42.1429 36.7312 42.6561 35.0007 42.6562C33.2701 42.6563 31.5784 42.1432 30.1395 41.1819C28.7005 40.2205 27.5789 38.8541 26.9166 37.2553C26.2542 35.6565 26.0808 33.8973 26.4182 32.2C26.7557 30.5026 27.5889 28.9435 28.8124 27.7197C29.6295 26.9083 30.6006 26.2687 31.6687 25.8384C32.1926 26.1052 32.7715 26.2461 33.3594 26.2499H39.2031C39.9308 26.6433 40.5989 27.138 41.1876 27.7191Z" fill="#CF9800"/>
</g>
<defs>
<clipPath id="clip0_69_64">
<rect width="70" height="70" fill="white"/>
</clipPath>
</defs>
</svg>
