<svg width="70" height="70" viewBox="0 0 70 70" fill="none" xmlns="http://www.w3.org/2000/svg">
<g clip-path="url(#clip0_69_68)">
<path d="M69.5956 48.6529L66.2584 45.3429C65.7221 44.8109 64.8564 44.8146 64.3245 45.3508C63.7926 45.887 63.7963 46.7529 64.3325 47.2847L67.6695 50.5947C67.9361 50.8592 68.2843 50.9913 68.6324 50.9913C68.9842 50.9913 69.336 50.8564 69.6032 50.5868C70.1354 50.0505 70.1318 49.1847 69.5956 48.6529Z" fill="#F65024"/>
<path d="M62.8581 41.9562C62.3241 41.4222 61.4585 41.4222 60.9242 41.9562L60.9219 41.9586C60.3879 42.4926 60.3891 43.3573 60.9231 43.8914C61.1897 44.1581 61.5396 44.2914 61.8893 44.2914C62.2398 44.2914 62.5907 44.1576 62.8579 43.8903C63.392 43.3562 63.392 42.4904 62.8581 41.9562Z" fill="#F65024"/>
<path d="M51.2002 48.2616L64.4658 34.9962C66.4748 32.987 66.4748 29.7178 64.4656 27.7085C63.7572 27.0001 62.8919 26.5426 61.9805 26.3338C62.293 25.662 62.4585 24.9247 62.4585 24.1616C62.4585 22.7852 61.9224 21.4911 60.9492 20.518C60.1859 19.7545 59.2249 19.2615 58.1819 19.0839C58.7691 17.2948 58.354 15.2458 56.9339 13.8258C56.1531 13.0452 55.182 12.5694 54.1685 12.3955C54.3383 11.8802 54.4279 11.3361 54.4279 10.7777C54.4279 9.40121 53.8918 8.10717 52.9186 7.13401C51.9453 6.16084 50.6513 5.62477 49.2749 5.62477C48.4009 5.62477 47.5605 5.8416 46.8139 6.24875L46.6819 6.10697C44.9672 4.26428 42.54 3.20758 40.0232 3.20758H29.2853C28.5302 3.20758 27.9178 3.81994 27.9178 4.57504V6.36824C27.9178 7.08588 28.0392 7.78451 28.2714 8.44145C27.6529 8.18455 26.9836 8.04961 26.2938 8.04961C24.9173 8.04961 23.6232 8.58569 22.6499 9.55885C21.2291 10.9796 20.8145 13.0301 21.4031 14.8198C20.3887 14.9933 19.4163 15.4693 18.6348 16.2507C17.6616 17.224 17.1255 18.518 17.1255 19.8944C17.1255 20.4516 17.2148 20.995 17.3839 21.5092C16.3421 21.6873 15.3821 22.18 14.6195 22.9428C13.0504 24.5119 12.7068 26.8498 13.5888 28.7555C12.6548 28.9689 11.7971 29.4393 11.1028 30.1334C9.09372 32.1425 9.09372 35.4117 11.1028 37.4209L13.8309 40.1488L0.400457 53.579C-0.133567 54.113 -0.133567 54.9789 0.400457 55.513C0.667468 55.7799 1.01747 55.9136 1.36733 55.9136C1.71719 55.9136 2.06719 55.78 2.33421 55.513L15.8942 41.953C16.6619 42.391 17.5331 42.6254 18.441 42.6254C19.8174 42.6254 21.1114 42.0893 22.0847 41.116C23.1421 40.0588 23.6422 38.6523 23.5866 37.2644C23.6559 37.2672 23.7252 37.2693 23.7945 37.2693C25.1139 37.2691 26.4339 36.7668 27.4382 35.7625C28.4114 34.7892 28.9475 33.4952 28.9475 32.1188C28.9475 32.0492 28.9451 31.98 28.9424 31.9109C29.0109 31.9136 29.0794 31.9158 29.148 31.9158C30.4675 31.9158 31.7873 31.4135 32.7917 30.409C33.7649 29.4357 34.301 28.1417 34.301 26.7653C34.301 26.6957 34.2986 26.6265 34.2959 26.5574C34.3644 26.5601 34.4329 26.5623 34.5015 26.5623C35.8211 26.5623 37.1407 26.06 38.1452 25.0555C40.033 23.1677 40.1466 20.1677 38.487 18.1455L47.5643 9.06817C48.0211 8.61125 48.6281 8.35983 49.2741 8.35983C49.9201 8.35983 50.5273 8.61125 50.9841 9.06817C51.4408 9.52494 51.6923 10.132 51.6923 10.778C51.6923 11.4238 51.4408 12.0311 50.9839 12.4878L49.6456 13.8261L44.7896 18.6821C44.2556 19.2161 44.2556 20.082 44.7896 20.6161C45.0566 20.883 45.4066 21.0167 45.7565 21.0167C46.1064 21.0167 46.4564 20.8831 46.7234 20.6161L51.5793 15.7601C52.522 14.8173 54.0561 14.8172 54.9991 15.76C55.9419 16.703 55.9419 18.2369 54.9991 19.1799L53.6606 20.5184L50.1431 24.0359C49.6091 24.5699 49.6091 25.4357 50.1431 25.9699C50.4101 26.2368 50.7601 26.3705 51.11 26.3705C51.4599 26.3705 51.8098 26.2369 52.0769 25.9699L55.5944 22.4524C56.0511 21.9955 56.6583 21.744 57.3042 21.744C57.9502 21.744 58.5573 21.9955 59.0141 22.4524C59.4709 22.9092 59.7223 23.5162 59.7223 24.1622C59.7223 24.808 59.4709 25.4154 59.014 25.872L57.1769 27.7091L55.4965 29.3895C54.9624 29.9235 54.9624 30.7894 55.4965 31.3235C55.7635 31.5904 56.1135 31.7241 56.4633 31.7241C56.8132 31.7241 57.1632 31.5905 57.4302 31.3235L59.1119 29.6419C60.0548 28.7006 61.588 28.7007 62.5304 29.6431C63.4733 30.5859 63.4733 32.12 62.5304 33.063L49.2648 46.3284C45.9338 49.6595 41.5067 51.588 36.7991 51.7589C36.4531 51.7714 36.1244 51.9149 35.8799 52.1604L23.6256 64.4602C23.0925 64.9952 23.094 65.861 23.6291 66.3941C23.8958 66.6598 24.245 66.7929 24.5942 66.7929C24.9449 66.7929 25.2958 66.6588 25.5629 66.3905L34.5763 57.3438C36.8658 58.8126 39.5583 59.511 42.2961 59.3299L49.3506 66.3845C49.6176 66.6514 49.9676 66.7851 50.3174 66.7851C50.6674 66.7851 51.0173 66.6515 51.2843 66.3845C51.8183 65.8505 51.8183 64.9846 51.2843 64.4505L43.7839 56.9493C43.4999 56.6654 43.1054 56.5204 42.7052 56.5532L42.2717 56.5887C40.2705 56.7528 38.2925 56.3145 36.5654 55.3466L37.4443 54.4647C42.6418 54.1441 47.5079 51.9541 51.2002 48.2616ZM20.151 39.1822C19.6942 39.6392 19.0869 39.8906 18.4412 39.8906C17.7952 39.8906 17.188 39.6392 16.7314 39.1822L13.0364 35.4874C12.0936 34.5446 12.0936 33.0105 13.0364 32.0675C13.4932 31.6106 14.1005 31.3592 14.7464 31.3592C15.3922 31.3592 15.9995 31.6106 16.4562 32.0675L20.1511 35.7624C21.0938 36.7052 21.0938 38.2393 20.151 39.1822ZM25.5048 33.8285C24.5618 34.7713 23.0274 34.7713 22.0849 33.8285L18.3899 30.1335L16.5527 28.2963C15.6099 27.3535 15.6099 25.8194 16.5527 24.8765C17.0095 24.4196 17.6168 24.1682 18.2625 24.1682C18.9085 24.1682 19.5157 24.4196 19.9723 24.8765L25.5043 30.4086C25.5043 30.4086 25.5043 30.4086 25.5045 30.4086C25.9614 30.8655 26.2128 31.4727 26.2128 32.1185C26.2128 32.7644 25.9614 33.3717 25.5048 33.8285ZM30.8582 28.4748C29.9153 29.4175 28.381 29.4177 27.4384 28.4748L20.5678 21.6043C20.1111 21.1475 19.8596 20.5405 19.8596 19.8945C19.8596 19.2487 20.1111 18.6414 20.568 18.1847C21.0394 17.7133 21.6587 17.4776 22.2778 17.4776C22.8966 17.4776 23.5152 17.713 23.9865 18.1836L27.1179 21.315L30.858 25.0551H30.8581C31.3148 25.5119 31.5662 26.1189 31.5662 26.7649C31.5665 27.4109 31.315 28.0182 30.8582 28.4748ZM36.2119 23.1212C35.2691 24.064 33.7349 24.064 32.7921 23.1212L25.9216 16.2507C25.9209 16.25 25.9201 16.2493 25.9193 16.2485L24.5831 14.9123C23.6403 13.9694 23.6403 12.4354 24.5831 11.4925C25.0545 11.0209 25.6739 10.7852 26.2931 10.7852C26.9123 10.7852 27.5316 11.0209 28.0029 11.4925L36.2116 19.7012C36.6685 20.158 36.9199 20.7651 36.9199 21.411C36.9201 22.0571 36.6688 22.6646 36.2119 23.1212ZM36.5714 16.1934L32.8155 12.4375C33.2414 12.5284 33.6793 12.5766 34.125 12.5765C34.135 12.5765 34.1451 12.5765 34.1552 12.5765L37.9079 12.5589C38.663 12.5553 39.2725 11.9402 39.2689 11.185C39.2654 10.4319 38.6538 9.82395 37.9016 9.82395C37.8994 9.82395 37.8972 9.82395 37.895 9.82395L34.1424 9.84158C34.1366 9.84158 34.1312 9.84158 34.1254 9.84158C33.2008 9.84158 32.3311 9.4827 31.6754 8.83014C31.0156 8.17334 30.6524 7.29916 30.6524 6.36811V5.94237H40.0228C41.783 5.94237 43.4804 6.68133 44.6797 7.97004L44.7353 8.02979L36.5714 16.1934Z" fill="#F65024"/>
</g>
<defs>
<clipPath id="clip0_69_68">
<rect width="70" height="70" fill="white"/>
</clipPath>
</defs>
</svg>
