<svg width="70" height="70" viewBox="0 0 70 70" fill="none" xmlns="http://www.w3.org/2000/svg">
<g clip-path="url(#clip0_69_60)">
<path d="M58.0619 48.8076C58.0932 48.2421 58.0808 47.6074 58.0659 46.8549L58.0653 46.8281C57.971 42.6459 57.4987 39.2982 55.5005 36.5545C53.6507 34.0144 50.663 32.0901 45.1866 29.9123C44.1051 29.4834 43.0836 29.0785 42.8472 28.8265C42.7398 28.7121 42.6831 28.1005 42.6229 27.4531C42.6064 27.2752 42.5887 27.0858 42.5685 26.8828C45.183 24.7081 46.8502 21.4327 46.8502 17.7753V15.0255V9.73892C46.8502 4.88621 42.6702 1.5865 38.5275 0.469149C34.4232 -0.638225 30.7181 0.252896 28.8485 2.73434C25.1768 3.34305 23.1101 6.39506 23.1491 11.218L23.1497 15.0911V17.775C23.1497 21.423 24.808 24.6907 27.4099 26.8654C27.3891 27.0729 27.371 27.2659 27.3542 27.4471C27.2937 28.0968 27.2365 28.7104 27.1284 28.8258C26.8922 29.0779 25.8709 29.4832 24.789 29.9124C23.1388 30.5683 21.7483 31.1878 20.538 31.8066C19.8659 32.1502 19.5996 32.9737 19.9433 33.646C20.1851 34.1189 20.6643 34.3908 21.1614 34.3908C21.3708 34.3908 21.5833 34.3424 21.7826 34.2406C22.5093 33.8691 23.3119 33.4951 24.2069 33.1101C27.0791 35.8994 30.9463 37.4823 34.967 37.4823C38.9958 37.4823 42.8699 35.8946 45.7437 33.0975C53.9006 36.5832 55.1631 39.4037 55.3321 46.8855L55.3325 46.9086C55.333 46.9393 55.3336 46.968 55.3343 46.9982C55.1383 46.9678 54.9375 46.952 54.7331 46.952H50.9575C50.4721 45.3544 49.6248 43.9034 48.4676 42.705C46.7755 40.9517 44.4548 40.0413 41.9346 40.1459C39.5511 40.2433 37.2499 41.2215 35.4557 42.9002C35.4557 42.9002 35.1071 43.2263 34.9988 43.325C34.8899 43.2259 34.5418 42.901 34.5418 42.901C32.7488 41.2217 30.4486 40.2432 28.0646 40.1457C25.5416 40.0397 23.2233 40.9513 21.5288 42.7047C20.3739 43.901 19.5276 45.3522 19.0423 46.9518H15.2632C15.0517 46.9518 14.8445 46.9692 14.642 47.0017C14.6429 46.964 14.6437 46.9275 14.6446 46.8892C14.6854 45.0837 14.7967 43.6933 14.995 42.5136C15.1202 41.7691 14.6181 41.0641 13.8737 40.9388C13.1288 40.8129 12.4242 41.3157 12.2989 42.0602C12.0782 43.3727 11.955 44.8874 11.9114 46.8261C11.8939 47.5741 11.8782 48.2447 11.9137 48.8448C11.5571 49.4344 11.3515 50.125 11.3515 50.8628V55.3879C11.3515 57.5465 13.1063 59.3027 15.2631 59.3027H19.2255C20.3978 59.3027 21.4949 58.9744 22.4296 58.4049L34.0488 69.6162C34.3136 69.8717 34.6557 69.9995 34.9979 69.9995C35.34 69.9995 35.6822 69.8717 35.9468 69.6163L47.5699 58.4048C48.5047 58.9742 49.6018 59.3026 50.7742 59.3026H54.7328C56.8918 59.3026 58.6483 57.5463 58.6483 55.3877V50.8627C58.6485 50.1096 58.4333 49.4054 58.0619 48.8076ZM29.7475 5.37626C30.1935 5.34018 30.5934 5.08811 30.8185 4.70126C32.0275 2.62334 35.2037 2.40436 37.8157 3.10861C40.9518 3.95449 44.1165 6.33286 44.1165 9.73892V13.7273C40.4721 13.8505 35.8744 13.4201 32.4835 11.1005C31.8831 10.6895 31.0668 10.8213 30.6252 11.3991C29.4427 12.9476 27.9642 13.3265 25.8837 13.5727V11.3198L25.883 11.1961C25.8534 7.54467 27.1537 5.58664 29.7475 5.37626ZM25.8837 17.775V16.324C28.1155 16.0751 30.2179 15.6713 31.9642 13.9958C35.7571 16.1471 40.3939 16.5778 44.1162 16.463V17.7751C44.1162 22.7997 40.0257 26.8874 34.9979 26.8874C29.9722 26.8873 25.8837 22.7995 25.8837 17.775ZM34.967 34.7487C32.0681 34.7487 29.2657 33.7488 27.0259 31.9567C27.9878 31.551 28.6487 31.2017 29.1232 30.6951C29.7029 30.0764 29.8848 29.3835 29.9926 28.5106C31.514 29.2225 33.2102 29.6212 34.9979 29.6212C36.7782 29.6212 38.4678 29.226 39.9844 28.5201C40.092 29.3892 40.2742 30.0797 40.8531 30.6967C41.3238 31.1984 41.9773 31.5458 42.9249 31.9463C40.6825 33.7449 37.8734 34.7487 34.967 34.7487ZM19.2256 56.5692H15.2632C14.6139 56.5692 14.0856 56.0395 14.0856 55.3883V50.8632C14.0856 50.2251 14.6248 49.6862 15.2632 49.6862H19.2256C21.1239 49.6862 22.6682 51.23 22.6682 53.1278C22.6682 55.0254 21.1239 56.5692 19.2256 56.5692ZM45.6053 56.502L34.9981 66.7335L24.3945 56.5022C25.0305 55.5316 25.4019 54.3725 25.4019 53.1279C25.4019 50.6181 23.8958 48.4548 21.7407 47.4897C22.11 46.4052 22.7052 45.4226 23.495 44.6045C25.8176 42.2011 29.9348 42.3325 32.6751 44.8992C32.6751 44.8992 33.8723 46.3058 34.9994 46.2683C36.0935 46.2318 37.3225 44.8976 37.3225 44.8976C40.0642 42.3331 44.1814 42.2012 46.5004 44.6041C47.2924 45.4247 47.8889 46.4074 48.2586 47.4901C46.1037 48.4552 44.5979 50.6184 44.5979 53.128C44.5979 54.3724 44.9693 55.5313 45.6053 56.502ZM55.9146 55.3883C55.9146 56.0395 55.3844 56.5692 54.733 56.5692H50.7744C49.8858 56.5692 49.0748 56.2309 48.4634 55.6763C48.4581 55.6706 48.4537 55.6646 48.4482 55.659C48.4134 55.6227 48.3767 55.5894 48.339 55.5578C47.7169 54.9349 47.3318 54.0755 47.3318 53.1278C47.3318 51.23 48.8761 49.6862 50.7744 49.6862H54.733C55.3844 49.6862 55.9146 50.2142 55.9146 50.8632V55.3883Z" fill="#8000EC"/>
<path d="M16.1188 38.0507C16.4697 38.0507 16.821 37.9169 17.0884 37.6494C17.6222 37.1156 17.6222 36.25 17.0884 35.7161C16.5544 35.1824 15.6891 35.1824 15.1551 35.7161L15.1512 35.7199C14.6174 36.2537 14.6194 37.1174 15.1533 37.6512C15.4196 37.9177 15.7691 38.0507 16.1188 38.0507Z" fill="#8000EC"/>
</g>
<defs>
<clipPath id="clip0_69_60">
<rect width="70" height="70" fill="white"/>
</clipPath>
</defs>
</svg>
