<svg width="70" height="70" viewBox="0 0 70 70" fill="none" xmlns="http://www.w3.org/2000/svg">
<g clip-path="url(#clip0_66_19)">
<path d="M68.4472 11.8043L35.7922 0.137663C35.2765 -0.0443413 34.7141 -0.0443413 34.1985 0.137663L1.55167 11.8043C0.626357 12.1379 0.00956726 13.0158 0.00956726 13.9994C0.00956726 14.983 0.626357 15.861 1.55167 16.1945L17.5 21.8925V29.1667C17.5 33.7027 33.2092 33.8333 35 33.8333C36.7908 33.8333 52.5 33.7027 52.5 29.1667V21.8925L56 20.65V23.3333C56 24.622 57.0447 25.6667 58.3333 25.6667H60.6667C61.9553 25.6667 63 24.622 63 23.3333V19.8333C62.9965 19.2931 62.8662 18.7612 62.6197 18.2805L68.453 16.1945C69.3783 15.861 69.9951 14.983 69.9951 13.9994C69.9951 13.0158 69.3783 12.1379 68.453 11.8043H68.4472ZM50.1667 26.6C45.7228 24.577 36.3592 24.5 35 24.5C33.6408 24.5 24.2772 24.577 19.8333 26.6V16.436C20.5333 15.5377 26.0353 14 35 14C43.9647 14 49.4667 15.5377 50.1667 16.436V26.6ZM35 31.5C26.3667 31.5 20.9452 30.0743 19.9313 29.1667C20.9452 28.259 26.369 26.8333 35 26.8333C43.631 26.8333 49.0548 28.259 50.0687 29.1667C49.0548 30.0743 43.6333 31.5 35 31.5ZM56.5472 17.9725L52.5 19.4157V16.3333C52.5 11.7973 36.7908 11.6667 35 11.6667C33.2092 11.6667 17.5 11.7973 17.5 16.3333V19.4145L2.33333 14L35.0163 2.33333L58.3333 10.6657V16.548C57.5956 16.8101 56.9669 17.3116 56.5472 17.9725ZM60.6667 23.3333H58.3333V19.8333C58.3333 19.189 58.8557 18.6667 59.5 18.6667C60.1443 18.6667 60.6667 19.189 60.6667 19.8333V23.3333ZM60.6667 16.5013V11.4998L67.6667 14L60.6667 16.5013Z" fill="#00715D"/>
<path d="M66.5 36.1667C66.43 36.1665 66.3601 36.1727 66.2912 36.1854C55.9397 37.7947 45.4756 38.5687 35 38.5C24.5244 38.5687 14.0603 37.7947 3.70883 36.1854C3.63983 36.1736 3.57 36.1673 3.5 36.1667C2.68333 36.1667 0 37.0919 0 49C0 60.9082 2.68333 61.8334 3.5 61.8334C3.57006 61.8319 3.63988 61.8249 3.70883 61.8124C11.6628 60.5525 19.6915 59.8205 27.7422 59.6214L25.4648 65.0837C25.115 65.9583 25.3277 66.9577 26.0034 67.614C26.6792 68.2703 27.6843 68.4538 28.5483 68.0785L29.4408 67.697L29.827 68.5849C30.1918 69.4457 31.0375 70.0036 31.9725 70H32.0017C32.9436 69.9927 33.7881 69.4177 34.1402 68.544L36.1667 63.693L38.1862 68.5254C38.5351 69.4073 39.3833 69.9902 40.3317 70H40.3667C41.2953 70.0038 42.1365 69.4528 42.504 68.6L42.8937 67.7052L43.7722 68.082C44.64 68.4651 45.6535 68.2826 46.3331 67.6209C47.0128 66.9592 47.2224 65.9509 46.8627 65.0732L44.6297 59.7182C51.8882 59.9752 59.1242 60.6765 66.297 61.8182C66.3641 61.8293 66.432 61.8344 66.5 61.8334C67.3167 61.8334 70 60.9082 70 49C70 37.0919 67.3167 36.1667 66.5 36.1667ZM38.7333 40.7984C39.2178 42.5798 39.5 44.4102 39.5745 46.2549C36.9292 45.0248 33.8266 45.3132 31.4533 47.0097C31.3937 44.9146 31.1252 42.8308 30.6518 40.789C32.0651 40.8186 33.5144 40.8334 35 40.8334C36.2752 40.8334 37.513 40.8194 38.7333 40.7984ZM36.1667 59.5C32.945 59.5 30.3333 56.8884 30.3333 53.6667C30.3333 50.445 32.945 47.8334 36.1667 47.8334C39.3883 47.8334 42 50.445 42 53.6667C41.9961 56.8868 39.3867 59.4962 36.1667 59.5ZM3.5 39.0834C4.39392 42.3098 4.78739 45.6543 4.66667 49C4.78739 52.3458 4.39392 55.6903 3.5 58.9167C2.60608 55.6903 2.21261 52.3458 2.33333 49C2.21261 45.6543 2.60608 42.3098 3.5 39.0834ZM5.85667 59.115C6.49483 57.2647 7 54.1684 7 49C7 43.8317 6.49483 40.7354 5.8555 38.8827C13.2692 39.9066 20.7335 40.5231 28.2147 40.7295C28.9144 43.4288 29.2348 46.2124 29.1667 49C29.1667 49.1692 29.1667 49.3302 29.1597 49.4924C27.7596 51.8159 27.6185 54.6868 28.784 57.1364L28.7327 57.26C21.0784 57.4476 13.4409 58.0677 5.85667 59.1174V59.115ZM31.9748 67.6667L31.1232 65.7067C30.867 65.1182 30.1836 64.8471 29.5937 65.1L27.6302 65.968L30.366 59.409C31.4892 60.5472 32.9221 61.3302 34.4867 61.6607L31.9748 67.6667ZM42.7397 65.1C42.1497 64.8471 41.4663 65.1182 41.2102 65.7067L40.3468 67.6469L37.8455 61.6584C39.4113 61.3277 40.8454 60.5443 41.9697 59.4055L44.6997 65.9389L42.7397 65.1ZM66.2667 59.4417C58.7712 58.2881 51.2131 57.5868 43.6333 57.3417L43.5505 57.141C45.0177 54.0493 44.3887 50.3695 41.9778 47.9407C41.9688 45.5212 41.6894 43.1103 41.1448 40.7529C49.5574 40.5645 57.949 39.8311 66.2667 38.5572C66.808 39.4765 67.6667 43.113 67.6667 49C67.6667 54.887 66.8022 58.5224 66.2667 59.4417Z" fill="#00715D"/>
</g>
<defs>
<clipPath id="clip0_66_19">
<rect width="70" height="70" fill="white"/>
</clipPath>
</defs>
</svg>
